<svg xmlns="http://www.w3.org/2000/svg" fill="" viewBox="0 0 24 24" width="24px" height="24px">
  <path d="M21.4 5H17V3.5c0-.83-.67-1.5-1.5-1.5h-7c-.83 0-1.5.67-1.5 1.5V5H2.6c-.37 0-.73.15-1 .44-.27.28-.42.65-.42 1.03v2c0 .26.03.52.09.77l1.4 5.23c.18.66.76 1.12 1.44 1.12H6v5c0 .83.67 1.5 1.5 1.5h9c.83 0 1.5-.67 1.5-1.5v-5h2.89c.68 0 1.26-.46 1.44-1.12l1.4-5.23c.06-.25.09-.51.09-.77v-2c0-.38-.15-.75-.42-1.03-.27-.29-.63-.44-1-.44zM9 3.5c0-.28.22-.5.5-.5h7c.28 0 .5.22.5.5V5H9V3.5zM12 15h-3c-.55 0-1-.45-1-1v-2c0-.55.45-1 1-1h3c.55 0 1 .45 1 1v2c0 .55-.45 1-1 1zm4 7h-9v-5h9v5zm2.39-7H6.61L5.27 9h13.46l-1.34 5z"/>
</svg>
